<mxfile host="app.diagrams.net" agent="Mozilla/5.0 (Macintosh; Intel Mac OS X 10_15_7) AppleWebKit/537.36 (KHTML, like Gecko) Chrome/129.0.0.0 Safari/537.36" version="24.7.17">
  <diagram name="Page-1" id="Jv7dfJ9JooVyrhJi3iQx">
    <mxGraphModel grid="1" page="1" gridSize="10" guides="1" tooltips="1" connect="1" arrows="1" fold="1" pageScale="1" pageWidth="850" pageHeight="1100" math="0" shadow="0">
      <root>
        <mxCell id="0" />
        <mxCell id="1" parent="0" />
        <mxCell id="cEkeiigFlOGeaeWz5f3F-46" value="" style="rounded=1;whiteSpace=wrap;html=1;dashed=1;" vertex="1" parent="1">
          <mxGeometry x="859.13" y="140" width="140" height="620" as="geometry" />
        </mxCell>
        <mxCell id="KL-Da2j8_7EiuSyjVJqi-5" value="" style="edgeStyle=orthogonalEdgeStyle;rounded=0;orthogonalLoop=1;jettySize=auto;html=1;" edge="1" parent="1" source="KL-Da2j8_7EiuSyjVJqi-1" target="KL-Da2j8_7EiuSyjVJqi-2">
          <mxGeometry relative="1" as="geometry" />
        </mxCell>
        <mxCell id="KL-Da2j8_7EiuSyjVJqi-1" value="Provider" style="ellipse;whiteSpace=wrap;html=1;aspect=fixed;" vertex="1" parent="1">
          <mxGeometry x="190" y="140" width="80" height="80" as="geometry" />
        </mxCell>
        <mxCell id="KL-Da2j8_7EiuSyjVJqi-6" value="" style="edgeStyle=orthogonalEdgeStyle;rounded=0;orthogonalLoop=1;jettySize=auto;html=1;" edge="1" parent="1" source="KL-Da2j8_7EiuSyjVJqi-2" target="KL-Da2j8_7EiuSyjVJqi-4">
          <mxGeometry relative="1" as="geometry" />
        </mxCell>
        <mxCell id="KL-Da2j8_7EiuSyjVJqi-2" value="" style="verticalLabelPosition=bottom;html=1;verticalAlign=top;align=center;strokeColor=default;fillColor=default;shape=mxgraph.azure.cloud;fillStyle=solid;strokeWidth=5;" vertex="1" parent="1">
          <mxGeometry x="360" y="153.43" width="75" height="53.13" as="geometry" />
        </mxCell>
        <mxCell id="KL-Da2j8_7EiuSyjVJqi-4" value="" style="sketch=0;pointerEvents=1;shadow=0;dashed=0;html=1;strokeColor=none;fillColor=#000000;labelPosition=center;verticalLabelPosition=bottom;verticalAlign=top;outlineConnect=0;align=center;shape=mxgraph.office.devices.cell_phone_iphone_standalone;" vertex="1" parent="1">
          <mxGeometry x="530" y="151.21" width="35" height="57.57" as="geometry" />
        </mxCell>
        <mxCell id="KL-Da2j8_7EiuSyjVJqi-7" value="APNs" style="text;html=1;align=center;verticalAlign=middle;resizable=0;points=[];autosize=1;strokeColor=none;fillColor=none;" vertex="1" parent="1">
          <mxGeometry x="372.5" y="208.78" width="50" height="30" as="geometry" />
        </mxCell>
        <mxCell id="KL-Da2j8_7EiuSyjVJqi-8" value="iOS" style="text;html=1;align=center;verticalAlign=middle;resizable=0;points=[];autosize=1;strokeColor=none;fillColor=none;" vertex="1" parent="1">
          <mxGeometry x="527.5" y="208.78" width="40" height="30" as="geometry" />
        </mxCell>
        <mxCell id="cEkeiigFlOGeaeWz5f3F-1" value="" style="edgeStyle=orthogonalEdgeStyle;rounded=0;orthogonalLoop=1;jettySize=auto;html=1;" edge="1" parent="1" source="cEkeiigFlOGeaeWz5f3F-2">
          <mxGeometry relative="1" as="geometry">
            <mxPoint x="360" y="390" as="targetPoint" />
          </mxGeometry>
        </mxCell>
        <mxCell id="cEkeiigFlOGeaeWz5f3F-2" value="Provider" style="ellipse;whiteSpace=wrap;html=1;aspect=fixed;" vertex="1" parent="1">
          <mxGeometry x="190" y="350" width="80" height="80" as="geometry" />
        </mxCell>
        <mxCell id="cEkeiigFlOGeaeWz5f3F-3" value="" style="edgeStyle=orthogonalEdgeStyle;rounded=0;orthogonalLoop=1;jettySize=auto;html=1;" edge="1" parent="1" target="cEkeiigFlOGeaeWz5f3F-5">
          <mxGeometry relative="1" as="geometry">
            <mxPoint x="435" y="390" as="sourcePoint" />
          </mxGeometry>
        </mxCell>
        <mxCell id="cEkeiigFlOGeaeWz5f3F-5" value="" style="sketch=0;pointerEvents=1;shadow=0;dashed=0;html=1;strokeColor=none;fillColor=#000000;labelPosition=center;verticalLabelPosition=bottom;verticalAlign=top;outlineConnect=0;align=center;shape=mxgraph.office.devices.cell_phone_iphone_standalone;" vertex="1" parent="1">
          <mxGeometry x="530" y="361.21000000000004" width="35" height="57.57" as="geometry" />
        </mxCell>
        <mxCell id="cEkeiigFlOGeaeWz5f3F-6" value="FCM" style="text;html=1;align=center;verticalAlign=middle;resizable=0;points=[];autosize=1;strokeColor=none;fillColor=none;" vertex="1" parent="1">
          <mxGeometry x="372.5" y="418.78" width="50" height="30" as="geometry" />
        </mxCell>
        <mxCell id="cEkeiigFlOGeaeWz5f3F-7" value="Android" style="text;html=1;align=center;verticalAlign=middle;resizable=0;points=[];autosize=1;strokeColor=none;fillColor=none;" vertex="1" parent="1">
          <mxGeometry x="517.5" y="418.78" width="60" height="30" as="geometry" />
        </mxCell>
        <mxCell id="cEkeiigFlOGeaeWz5f3F-8" value="" style="shape=image;html=1;verticalAlign=top;verticalLabelPosition=bottom;labelBackgroundColor=#ffffff;imageAspect=0;aspect=fixed;image=https://cdn1.iconfinder.com/data/icons/ionicons-fill-vol-2/512/logo-firebase-128.png" vertex="1" parent="1">
          <mxGeometry x="360" y="340.53" width="78.25" height="78.25" as="geometry" />
        </mxCell>
        <mxCell id="cEkeiigFlOGeaeWz5f3F-9" value="" style="edgeStyle=orthogonalEdgeStyle;rounded=0;orthogonalLoop=1;jettySize=auto;html=1;" edge="1" parent="1" source="cEkeiigFlOGeaeWz5f3F-10">
          <mxGeometry relative="1" as="geometry">
            <mxPoint x="360" y="590" as="targetPoint" />
          </mxGeometry>
        </mxCell>
        <mxCell id="cEkeiigFlOGeaeWz5f3F-10" value="Provider" style="ellipse;whiteSpace=wrap;html=1;aspect=fixed;" vertex="1" parent="1">
          <mxGeometry x="190" y="550" width="80" height="80" as="geometry" />
        </mxCell>
        <mxCell id="cEkeiigFlOGeaeWz5f3F-11" value="" style="edgeStyle=orthogonalEdgeStyle;rounded=0;orthogonalLoop=1;jettySize=auto;html=1;" edge="1" parent="1" target="cEkeiigFlOGeaeWz5f3F-13">
          <mxGeometry relative="1" as="geometry">
            <mxPoint x="435" y="590" as="sourcePoint" />
          </mxGeometry>
        </mxCell>
        <mxCell id="cEkeiigFlOGeaeWz5f3F-13" value="" style="sketch=0;pointerEvents=1;shadow=0;dashed=0;html=1;strokeColor=none;fillColor=#000000;labelPosition=center;verticalLabelPosition=bottom;verticalAlign=top;outlineConnect=0;align=center;shape=mxgraph.office.devices.cell_phone_iphone_standalone;" vertex="1" parent="1">
          <mxGeometry x="530" y="561.21" width="35" height="57.57" as="geometry" />
        </mxCell>
        <mxCell id="cEkeiigFlOGeaeWz5f3F-14" value="SMS&lt;div&gt;Service&lt;/div&gt;" style="text;html=1;align=center;verticalAlign=middle;resizable=0;points=[];autosize=1;strokeColor=none;fillColor=none;" vertex="1" parent="1">
          <mxGeometry x="367.5" y="613.78" width="60" height="40" as="geometry" />
        </mxCell>
        <mxCell id="cEkeiigFlOGeaeWz5f3F-15" value="SMS" style="text;html=1;align=center;verticalAlign=middle;resizable=0;points=[];autosize=1;strokeColor=none;fillColor=none;" vertex="1" parent="1">
          <mxGeometry x="522.5" y="618.78" width="50" height="30" as="geometry" />
        </mxCell>
        <mxCell id="cEkeiigFlOGeaeWz5f3F-16" value="" style="dashed=0;outlineConnect=0;html=1;align=center;labelPosition=center;verticalLabelPosition=bottom;verticalAlign=top;shape=mxgraph.webicons.sms;fillColor=#000000;gradientColor=#000000;" vertex="1" parent="1">
          <mxGeometry x="371.3" y="561.21" width="52.4" height="52.4" as="geometry" />
        </mxCell>
        <mxCell id="cEkeiigFlOGeaeWz5f3F-17" value="" style="edgeStyle=orthogonalEdgeStyle;rounded=0;orthogonalLoop=1;jettySize=auto;html=1;" edge="1" parent="1" source="cEkeiigFlOGeaeWz5f3F-18">
          <mxGeometry relative="1" as="geometry">
            <mxPoint x="360" y="800" as="targetPoint" />
          </mxGeometry>
        </mxCell>
        <mxCell id="cEkeiigFlOGeaeWz5f3F-18" value="Provider" style="ellipse;whiteSpace=wrap;html=1;aspect=fixed;" vertex="1" parent="1">
          <mxGeometry x="190" y="760" width="80" height="80" as="geometry" />
        </mxCell>
        <mxCell id="cEkeiigFlOGeaeWz5f3F-19" value="" style="edgeStyle=orthogonalEdgeStyle;rounded=0;orthogonalLoop=1;jettySize=auto;html=1;" edge="1" parent="1">
          <mxGeometry relative="1" as="geometry">
            <mxPoint x="435" y="800" as="sourcePoint" />
            <mxPoint x="530" y="800" as="targetPoint" />
          </mxGeometry>
        </mxCell>
        <mxCell id="cEkeiigFlOGeaeWz5f3F-21" value="Email&lt;div&gt;Service&lt;/div&gt;" style="text;html=1;align=center;verticalAlign=middle;resizable=0;points=[];autosize=1;strokeColor=none;fillColor=none;" vertex="1" parent="1">
          <mxGeometry x="367.5" y="823.78" width="60" height="40" as="geometry" />
        </mxCell>
        <mxCell id="cEkeiigFlOGeaeWz5f3F-22" value="Email" style="text;html=1;align=center;verticalAlign=middle;resizable=0;points=[];autosize=1;strokeColor=none;fillColor=none;" vertex="1" parent="1">
          <mxGeometry x="525" y="817.5" width="50" height="30" as="geometry" />
        </mxCell>
        <mxCell id="cEkeiigFlOGeaeWz5f3F-24" value="" style="shape=image;html=1;verticalAlign=top;verticalLabelPosition=bottom;labelBackgroundColor=#ffffff;imageAspect=0;aspect=fixed;image=https://cdn3.iconfinder.com/data/icons/essential-rounded/66/Rounded-36-128.png" vertex="1" parent="1">
          <mxGeometry x="368.5" y="770.78" width="58" height="58" as="geometry" />
        </mxCell>
        <mxCell id="cEkeiigFlOGeaeWz5f3F-25" value="" style="verticalLabelPosition=bottom;html=1;verticalAlign=top;align=center;strokeColor=none;fillColor=#000000;shape=mxgraph.azure.laptop;pointerEvents=1;" vertex="1" parent="1">
          <mxGeometry x="530" y="786.03" width="40" height="27.5" as="geometry" />
        </mxCell>
        <mxCell id="cEkeiigFlOGeaeWz5f3F-26" value="" style="edgeStyle=orthogonalEdgeStyle;rounded=0;orthogonalLoop=1;jettySize=auto;html=1;" edge="1" parent="1" target="cEkeiigFlOGeaeWz5f3F-28">
          <mxGeometry relative="1" as="geometry">
            <mxPoint x="1000" y="180" as="sourcePoint" />
          </mxGeometry>
        </mxCell>
        <mxCell id="cEkeiigFlOGeaeWz5f3F-27" value="" style="verticalLabelPosition=bottom;html=1;verticalAlign=top;align=center;strokeColor=default;fillColor=default;shape=mxgraph.azure.cloud;fillStyle=solid;strokeWidth=5;" vertex="1" parent="1">
          <mxGeometry x="890" y="153.43" width="75" height="53.13" as="geometry" />
        </mxCell>
        <mxCell id="cEkeiigFlOGeaeWz5f3F-28" value="" style="sketch=0;pointerEvents=1;shadow=0;dashed=0;html=1;strokeColor=none;fillColor=#000000;labelPosition=center;verticalLabelPosition=bottom;verticalAlign=top;outlineConnect=0;align=center;shape=mxgraph.office.devices.cell_phone_iphone_standalone;" vertex="1" parent="1">
          <mxGeometry x="1060" y="151.21" width="35" height="57.57" as="geometry" />
        </mxCell>
        <mxCell id="cEkeiigFlOGeaeWz5f3F-29" value="APNs" style="text;html=1;align=center;verticalAlign=middle;resizable=0;points=[];autosize=1;strokeColor=none;fillColor=none;" vertex="1" parent="1">
          <mxGeometry x="902.5" y="208.78" width="50" height="30" as="geometry" />
        </mxCell>
        <mxCell id="cEkeiigFlOGeaeWz5f3F-30" value="iOS" style="text;html=1;align=center;verticalAlign=middle;resizable=0;points=[];autosize=1;strokeColor=none;fillColor=none;" vertex="1" parent="1">
          <mxGeometry x="1057.5" y="208.78" width="40" height="30" as="geometry" />
        </mxCell>
        <mxCell id="cEkeiigFlOGeaeWz5f3F-31" value="" style="edgeStyle=orthogonalEdgeStyle;rounded=0;orthogonalLoop=1;jettySize=auto;html=1;" edge="1" parent="1" target="cEkeiigFlOGeaeWz5f3F-32">
          <mxGeometry relative="1" as="geometry">
            <mxPoint x="1000" y="330" as="sourcePoint" />
            <Array as="points">
              <mxPoint x="1000" y="330" />
            </Array>
          </mxGeometry>
        </mxCell>
        <mxCell id="cEkeiigFlOGeaeWz5f3F-32" value="" style="sketch=0;pointerEvents=1;shadow=0;dashed=0;html=1;strokeColor=none;fillColor=#000000;labelPosition=center;verticalLabelPosition=bottom;verticalAlign=top;outlineConnect=0;align=center;shape=mxgraph.office.devices.cell_phone_iphone_standalone;" vertex="1" parent="1">
          <mxGeometry x="1060" y="300.34000000000003" width="35" height="57.57" as="geometry" />
        </mxCell>
        <mxCell id="cEkeiigFlOGeaeWz5f3F-33" value="FCM" style="text;html=1;align=center;verticalAlign=middle;resizable=0;points=[];autosize=1;strokeColor=none;fillColor=none;" vertex="1" parent="1">
          <mxGeometry x="902.5" y="368.25" width="50" height="30" as="geometry" />
        </mxCell>
        <mxCell id="cEkeiigFlOGeaeWz5f3F-34" value="Android" style="text;html=1;align=center;verticalAlign=middle;resizable=0;points=[];autosize=1;strokeColor=none;fillColor=none;" vertex="1" parent="1">
          <mxGeometry x="1047.5" y="361.21" width="60" height="30" as="geometry" />
        </mxCell>
        <mxCell id="cEkeiigFlOGeaeWz5f3F-35" value="" style="shape=image;html=1;verticalAlign=top;verticalLabelPosition=bottom;labelBackgroundColor=#ffffff;imageAspect=0;aspect=fixed;image=https://cdn1.iconfinder.com/data/icons/ionicons-fill-vol-2/512/logo-firebase-128.png" vertex="1" parent="1">
          <mxGeometry x="890" y="290" width="78.25" height="78.25" as="geometry" />
        </mxCell>
        <mxCell id="cEkeiigFlOGeaeWz5f3F-36" value="" style="edgeStyle=orthogonalEdgeStyle;rounded=0;orthogonalLoop=1;jettySize=auto;html=1;" edge="1" parent="1" target="cEkeiigFlOGeaeWz5f3F-37">
          <mxGeometry relative="1" as="geometry">
            <mxPoint x="1000" y="470" as="sourcePoint" />
            <Array as="points">
              <mxPoint x="1000" y="470" />
            </Array>
          </mxGeometry>
        </mxCell>
        <mxCell id="cEkeiigFlOGeaeWz5f3F-37" value="" style="sketch=0;pointerEvents=1;shadow=0;dashed=0;html=1;strokeColor=none;fillColor=#000000;labelPosition=center;verticalLabelPosition=bottom;verticalAlign=top;outlineConnect=0;align=center;shape=mxgraph.office.devices.cell_phone_iphone_standalone;" vertex="1" parent="1">
          <mxGeometry x="1060" y="440.00000000000006" width="35" height="57.57" as="geometry" />
        </mxCell>
        <mxCell id="cEkeiigFlOGeaeWz5f3F-38" value="SMS&lt;div&gt;Service&lt;/div&gt;" style="text;html=1;align=center;verticalAlign=middle;resizable=0;points=[];autosize=1;strokeColor=none;fillColor=none;" vertex="1" parent="1">
          <mxGeometry x="899.13" y="492.57" width="60" height="40" as="geometry" />
        </mxCell>
        <mxCell id="cEkeiigFlOGeaeWz5f3F-39" value="SMS" style="text;html=1;align=center;verticalAlign=middle;resizable=0;points=[];autosize=1;strokeColor=none;fillColor=none;" vertex="1" parent="1">
          <mxGeometry x="1052.5" y="497.57" width="50" height="30" as="geometry" />
        </mxCell>
        <mxCell id="cEkeiigFlOGeaeWz5f3F-40" value="" style="dashed=0;outlineConnect=0;html=1;align=center;labelPosition=center;verticalLabelPosition=bottom;verticalAlign=top;shape=mxgraph.webicons.sms;fillColor=#000000;gradientColor=#000000;" vertex="1" parent="1">
          <mxGeometry x="902.93" y="440.00000000000006" width="52.4" height="52.4" as="geometry" />
        </mxCell>
        <mxCell id="cEkeiigFlOGeaeWz5f3F-41" value="" style="edgeStyle=orthogonalEdgeStyle;rounded=0;orthogonalLoop=1;jettySize=auto;html=1;" edge="1" parent="1">
          <mxGeometry relative="1" as="geometry">
            <mxPoint x="999.13" y="598.5" as="sourcePoint" />
            <mxPoint x="1059.13" y="598.5" as="targetPoint" />
          </mxGeometry>
        </mxCell>
        <mxCell id="cEkeiigFlOGeaeWz5f3F-42" value="Email&lt;div&gt;Service&lt;/div&gt;" style="text;html=1;align=center;verticalAlign=middle;resizable=0;points=[];autosize=1;strokeColor=none;fillColor=none;" vertex="1" parent="1">
          <mxGeometry x="899.13" y="630" width="60" height="40" as="geometry" />
        </mxCell>
        <mxCell id="cEkeiigFlOGeaeWz5f3F-43" value="Email" style="text;html=1;align=center;verticalAlign=middle;resizable=0;points=[];autosize=1;strokeColor=none;fillColor=none;" vertex="1" parent="1">
          <mxGeometry x="1055" y="612.75" width="50" height="30" as="geometry" />
        </mxCell>
        <mxCell id="cEkeiigFlOGeaeWz5f3F-44" value="" style="shape=image;html=1;verticalAlign=top;verticalLabelPosition=bottom;labelBackgroundColor=#ffffff;imageAspect=0;aspect=fixed;image=https://cdn3.iconfinder.com/data/icons/essential-rounded/66/Rounded-36-128.png" vertex="1" parent="1">
          <mxGeometry x="900.13" y="570" width="58" height="58" as="geometry" />
        </mxCell>
        <mxCell id="cEkeiigFlOGeaeWz5f3F-45" value="" style="verticalLabelPosition=bottom;html=1;verticalAlign=top;align=center;strokeColor=none;fillColor=#000000;shape=mxgraph.azure.laptop;pointerEvents=1;" vertex="1" parent="1">
          <mxGeometry x="1057.5" y="586.28" width="40" height="27.5" as="geometry" />
        </mxCell>
        <mxCell id="cEkeiigFlOGeaeWz5f3F-47" value="Third Party&lt;div&gt;Services&lt;/div&gt;" style="text;html=1;align=center;verticalAlign=middle;resizable=0;points=[];autosize=1;strokeColor=none;fillColor=none;" vertex="1" parent="1">
          <mxGeometry x="887.5" y="710" width="80" height="40" as="geometry" />
        </mxCell>
      </root>
    </mxGraphModel>
  </diagram>
</mxfile>
